<svg width="43" height="37" viewBox="0 0 43 37" fill="none" xmlns="http://www.w3.org/2000/svg">
<path d="M31.6275 12.03C31.6275 9.63709 30.5168 7.34218 28.5397 5.65014C26.5626 3.95809 23.881 3.00751 21.085 3.00751C18.2889 3.00751 15.6074 3.95809 13.6303 5.65014C11.6532 7.34218 10.5425 9.63709 10.5425 12.03C10.5425 22.5563 5.27124 25.5638 5.27124 25.5638H36.8987C36.8987 25.5638 31.6275 22.5563 31.6275 12.03Z" stroke="black" stroke-width="2" stroke-linecap="round" stroke-linejoin="round"/>
<path d="M24.1248 31.5787C23.8159 32.0345 23.3725 32.4128 22.839 32.6758C22.3055 32.9387 21.7007 33.0772 21.085 33.0772C20.4694 33.0772 19.8646 32.9387 19.3311 32.6758C18.7976 32.4128 18.3542 32.0345 18.0453 31.5787" stroke="black" stroke-width="2" stroke-linecap="round" stroke-linejoin="round"/>
</svg>
