<svg width="43" height="37" viewBox="0 0 43 37" fill="none" xmlns="http://www.w3.org/2000/svg">
<path d="M34.0889 22.5586C33.855 23.0122 33.7852 23.5154 33.8885 24.0032C33.9919 24.4911 34.2636 24.9413 34.6687 25.2957L34.7742 25.3859C35.1009 25.6653 35.3601 25.997 35.537 26.3622C35.7138 26.7273 35.8049 27.1187 35.8049 27.514C35.8049 27.9092 35.7138 28.3006 35.537 28.6658C35.3601 29.0309 35.1009 29.3626 34.7742 29.642C34.4478 29.9216 34.0602 30.1435 33.6336 30.2949C33.2069 30.4462 32.7496 30.5241 32.2878 30.5241C31.8259 30.5241 31.3686 30.4462 30.942 30.2949C30.5154 30.1435 30.1278 29.9216 29.8014 29.642L29.696 29.5518C29.2818 29.2051 28.7559 28.9725 28.1859 28.884C27.6158 28.7956 27.0279 28.8553 26.498 29.0555C25.9782 29.2461 25.535 29.5627 25.2228 29.9661C24.9106 30.3696 24.7431 30.8424 24.7408 31.3264V31.582C24.7408 32.3798 24.3705 33.1448 23.7115 33.7089C23.0524 34.2729 22.1585 34.5898 21.2265 34.5898C20.2944 34.5898 19.4006 34.2729 18.7415 33.7089C18.0824 33.1448 17.7122 32.3798 17.7122 31.582V31.4467C17.6986 30.9489 17.5103 30.4661 17.1719 30.0611C16.8334 29.6561 16.3605 29.3477 15.8144 29.1758C15.2845 28.9756 14.6966 28.9159 14.1265 29.0043C13.5565 29.0928 13.0305 29.3254 12.6164 29.6721L12.511 29.7623C12.1846 30.042 11.797 30.2638 11.3704 30.4152C10.9438 30.5665 10.4865 30.6445 10.0246 30.6445C9.56278 30.6445 9.10548 30.5665 8.67885 30.4152C8.25222 30.2638 7.86463 30.042 7.53824 29.7623C7.2115 29.483 6.95228 29.1512 6.77543 28.7861C6.59857 28.4209 6.50754 28.0296 6.50754 27.6343C6.50754 27.239 6.59857 26.8476 6.77543 26.4825C6.95228 26.1173 7.2115 25.7856 7.53824 25.5062L7.64367 25.416C8.04876 25.0616 8.3205 24.6114 8.42386 24.1235C8.52721 23.6357 8.45744 23.1325 8.22353 22.6789C8.00079 22.2341 7.63094 21.8547 7.15952 21.5875C6.68809 21.3203 6.13566 21.1769 5.57023 21.175H5.27151C4.33946 21.175 3.44558 20.8581 2.78652 20.294C2.12746 19.73 1.7572 18.9649 1.7572 18.1672C1.7572 17.3695 2.12746 16.6044 2.78652 16.0403C3.44558 15.4763 4.33946 15.1594 5.27151 15.1594H5.42966C6.01127 15.1477 6.57533 14.9866 7.04852 14.6969C7.52172 14.4073 7.88215 14.0025 8.08296 13.5352C8.31687 13.0816 8.38664 12.5784 8.28329 12.0905C8.17993 11.6027 7.90819 11.1525 7.5031 10.798L7.39767 10.7078C7.07092 10.4285 6.81171 10.0967 6.63486 9.7316C6.458 9.36645 6.36697 8.97506 6.36697 8.57979C6.36697 8.18451 6.458 7.79312 6.63486 7.42797C6.81171 7.06283 7.07092 6.7311 7.39767 6.45176C7.72406 6.1721 8.11164 5.95025 8.53828 5.79888C8.96491 5.64752 9.42221 5.56961 9.88405 5.56961C10.3459 5.56961 10.8032 5.64752 11.2298 5.79888C11.6564 5.95025 12.044 6.1721 12.3704 6.45176L12.4759 6.54199C12.89 6.8887 13.416 7.12128 13.986 7.20973C14.556 7.29819 15.1439 7.23847 15.6739 7.03828H15.8144C16.3342 6.84764 16.7774 6.5311 17.0896 6.12761C17.4018 5.72413 17.5693 5.25132 17.5716 4.76738V4.51172C17.5716 3.714 17.9419 2.94895 18.6009 2.38487C19.26 1.8208 20.1539 1.50391 21.0859 1.50391C22.018 1.50391 22.9118 1.8208 23.5709 2.38487C24.23 2.94895 24.6002 3.714 24.6002 4.51172V4.64707C24.6025 5.13101 24.77 5.60382 25.0822 6.0073C25.3944 6.41079 25.8377 6.72733 26.3574 6.91797C26.8874 7.11816 27.4753 7.17788 28.0453 7.08942C28.6153 7.00096 29.1413 6.76839 29.5554 6.42168L29.6608 6.33145C29.9872 6.05179 30.3748 5.82994 30.8014 5.67857C31.2281 5.5272 31.6854 5.44929 32.1472 5.44929C32.609 5.44929 33.0663 5.5272 33.493 5.67857C33.9196 5.82994 34.3072 6.05179 34.6336 6.33145C34.9603 6.61079 35.2195 6.94252 35.3964 7.30766C35.5733 7.6728 35.6643 8.0642 35.6643 8.45947C35.6643 8.85475 35.5733 9.24614 35.3964 9.61129C35.2195 9.97643 34.9603 10.3082 34.6336 10.5875L34.5282 10.6777C34.1231 11.0322 33.8513 11.4823 33.748 11.9702C33.6446 12.4581 33.7144 12.9612 33.9483 13.4148V13.5352C34.171 13.98 34.5409 14.3593 35.0123 14.6265C35.4837 14.8937 36.0362 15.0371 36.6016 15.0391H36.9003C37.8324 15.0391 38.7262 15.356 39.3853 15.92C40.0444 16.4841 40.4146 17.2492 40.4146 18.0469C40.4146 18.8446 40.0444 19.6096 39.3853 20.1737C38.7262 20.7378 37.8324 21.0547 36.9003 21.0547H36.7422C36.1767 21.0566 35.6243 21.2 35.1529 21.4672C34.6815 21.7344 34.3116 22.1138 34.0889 22.5586Z" stroke="black" stroke-width="2" stroke-linecap="round" stroke-linejoin="round"/>
<path d="M21.0859 22.5586C23.9973 22.5586 26.3574 20.5386 26.3574 18.0469C26.3574 15.5551 23.9973 13.5352 21.0859 13.5352C18.1746 13.5352 15.8145 15.5551 15.8145 18.0469C15.8145 20.5386 18.1746 22.5586 21.0859 22.5586Z" stroke="black" stroke-width="2" stroke-linecap="round" stroke-linejoin="round"/>
</svg>
